<svg width="32" height="32" viewBox="0 0 32 32" fill="current" xmlns="http://www.w3.org/2000/svg">
<path fill-rule="evenodd" clip-rule="evenodd" d="M29.6667 16.3333C29.6667 23.6971 23.6971 29.6667 16.3333 29.6667C8.96953 29.6667 3 23.6971 3 16.3333C3 8.96954 8.96954 3 16.3333 3C23.6971 3 29.6667 8.96954 29.6667 16.3333ZM14.9927 22.436L14.9927 25L17.1797 25L17.1797 22.4588C17.7276 22.3825 18.2297 22.243 18.686 22.0403C19.418 21.7093 19.9867 21.2506 20.392 20.6641C20.7973 20.0777 21 19.3954 21 18.6173C21 17.7289 20.7489 17.0176 20.2468 16.4834C19.7508 15.9434 18.9371 15.5166 17.8058 15.203L15.4555 14.5498C14.8324 14.3756 14.3757 14.1666 14.0853 13.9227C13.801 13.6788 13.6588 13.3856 13.6588 13.043C13.6588 12.7353 13.7616 12.4594 13.9673 12.2156C14.173 11.9659 14.4513 11.7743 14.8022 11.6407C15.1531 11.5014 15.5493 11.4346 15.9909 11.4404C16.4507 11.452 16.8681 11.5449 17.2432 11.7191C17.6183 11.8933 17.9298 12.1372 18.1779 12.4507C18.4259 12.7643 18.5923 13.1272 18.677 13.5395L20.9183 13.1475C20.7308 12.3811 20.4132 11.7249 19.9655 11.1791C19.5239 10.6333 18.9673 10.2152 18.2958 9.92488C17.9492 9.77366 17.5772 9.66103 17.1797 9.587L17.1797 7.00002L14.9927 7.00002L14.9927 9.54475C14.4913 9.61457 14.0345 9.74127 13.6225 9.92488C12.9449 10.221 12.4186 10.6478 12.0436 11.2052C11.6745 11.7568 11.49 12.4043 11.49 13.1475C11.49 14.7385 12.4065 15.8069 14.2396 16.3527L17.3884 17.2934C17.8966 17.4444 18.2656 17.636 18.4955 17.8683C18.7253 18.0947 18.8403 18.3909 18.8403 18.7567C18.8403 19.2793 18.5983 19.7118 18.1143 20.0544C17.6304 20.3912 17.0133 20.5596 16.2632 20.5596C15.4828 20.5596 14.8113 20.3506 14.2486 19.9325C13.6921 19.5086 13.3291 18.9396 13.1597 18.2254L11 18.5563C11.127 19.3693 11.4204 20.0719 11.8802 20.6641C12.346 21.2564 12.9419 21.7151 13.6679 22.0403C14.0785 22.2242 14.5201 22.3561 14.9927 22.436Z" fill="current"/>
</svg>
