<svg width="32" height="32" viewBox="0 0 32 32" fill="current" xmlns="http://www.w3.org/2000/svg">
<path fill-rule="evenodd" clip-rule="evenodd" d="M29.3333 16C29.3333 23.3638 23.3638 29.3334 16 29.3334C8.6362 29.3334 2.66666 23.3638 2.66666 16C2.66666 8.63622 8.6362 2.66669 16 2.66669C23.3638 2.66669 29.3333 8.63622 29.3333 16ZM15.1161 9.7828C15.2363 9.66266 15.3748 9.57208 15.5226 9.51107C15.6697 9.45025 15.8309 9.41669 16 9.41669C16.3382 9.41669 16.6451 9.55102 16.8701 9.76924L16.8853 9.78422L22.2172 15.1161C22.7054 15.6043 22.7054 16.3957 22.2172 16.8839C21.7291 17.3721 20.9376 17.3721 20.4494 16.8839L17.25 13.6845V21.3334C17.25 22.0237 16.6904 22.5834 16 22.5834C15.3096 22.5834 14.75 22.0237 14.75 21.3334V13.6845L11.5505 16.8839C11.0624 17.3721 10.2709 17.3721 9.78278 16.8839C9.29463 16.3957 9.29463 15.6043 9.78278 15.1161L15.1161 9.7828Z" fill="current"/>
</svg>
