<svg width="32" height="32" viewBox="0 0 32 32" fill="current" xmlns="http://www.w3.org/2000/svg">
<path fill-rule="evenodd" clip-rule="evenodd" d="M29.3333 16C29.3333 23.3638 23.3638 29.3334 16 29.3334C8.6362 29.3334 2.66667 23.3638 2.66667 16C2.66667 8.63622 8.63621 2.66669 16 2.66669C23.3638 2.66669 29.3333 8.63623 29.3333 16ZM16 9.41669C16.6904 9.41669 17.25 9.97633 17.25 10.6667L17.25 18.3156L20.4494 15.1161C20.9376 14.628 21.729 14.628 22.2172 15.1161C22.7054 15.6043 22.7054 16.3957 22.2172 16.8839L16.8892 22.2118C16.8706 22.2307 16.8514 22.249 16.8316 22.2666C16.7324 22.3551 16.6226 22.4251 16.5065 22.4765C16.3517 22.5452 16.1803 22.5834 16 22.5834C15.8224 22.5834 15.6535 22.5463 15.5005 22.4796C15.3733 22.4242 15.2534 22.3466 15.1468 22.2469C15.1352 22.2361 15.1238 22.225 15.1127 22.2138L9.78277 16.8839C9.29462 16.3957 9.29462 15.6043 9.78277 15.1161C10.2709 14.628 11.0624 14.628 11.5505 15.1161L14.75 18.3156L14.75 10.6667C14.75 9.97633 15.3096 9.41669 16 9.41669Z" fill="current"/>
</svg>
