<svg width="165" height="40" viewBox="0 0 165 40" fill="none" xmlns="http://www.w3.org/2000/svg">
<path d="M34.1422 5.85781C30.3647 2.08031 25.3422 0 20 0C14.6578 0 9.63531 2.08031 5.85781 5.85781C2.08031 9.63531 0 14.6578 0 20C0 25.3422 2.08039 30.3646 5.85781 34.1422C9.63523 37.9198 14.6578 40 20 40C25.3422 40 30.3647 37.9197 34.1422 34.1422C37.9197 30.3647 40 25.3422 40 20C40 14.6578 37.9196 9.63539 34.1422 5.85781Z" fill="#33CC95"/>
<path fill-rule="evenodd" clip-rule="evenodd" d="M21.5714 8C21.5714 7.44772 21.1237 7 20.5714 7C20.0192 7 19.5714 7.44772 19.5714 8V11.5714H17.7143C16.3882 11.5714 15.1164 12.0982 14.1788 13.0359C13.2411 13.9736 12.7143 15.2453 12.7143 16.5714C12.7143 17.8975 13.2411 19.1693 14.1788 20.1069C15.1164 21.0446 16.3882 21.5714 17.7143 21.5714H19.5714V27.5714H13.7143C13.162 27.5714 12.7143 28.0191 12.7143 28.5714C12.7143 29.1237 13.162 29.5714 13.7143 29.5714H19.5714V33.1429C19.5714 33.6951 20.0192 34.1429 20.5714 34.1429C21.1237 34.1429 21.5714 33.6951 21.5714 33.1429V29.5714H23.4286C24.7547 29.5714 26.0264 29.0446 26.9641 28.1069C27.9018 27.1693 28.4286 25.8975 28.4286 24.5714C28.4286 23.2453 27.9018 21.9736 26.9641 21.0359C26.0264 20.0982 24.7547 19.5714 23.4286 19.5714H21.5714V13.5714H26.2857C26.838 13.5714 27.2857 13.1237 27.2857 12.5714C27.2857 12.0191 26.838 11.5714 26.2857 11.5714H21.5714V8ZM19.5714 13.5714H17.7143C16.9186 13.5714 16.1556 13.8875 15.593 14.4501C15.0304 15.0127 14.7143 15.7758 14.7143 16.5714C14.7143 17.3671 15.0304 18.1301 15.593 18.6927C16.1556 19.2553 16.9186 19.5714 17.7143 19.5714H19.5714V13.5714ZM21.5714 21.5714V27.5714H23.4286C24.2242 27.5714 24.9873 27.2553 25.5499 26.6927C26.1125 26.1301 26.4286 25.3671 26.4286 24.5714C26.4286 23.7758 26.1125 23.0127 25.5499 22.4501C24.9873 21.8875 24.2242 21.5714 23.4286 21.5714H21.5714Z" fill="white"/>
<path d="M48 21.064C48 19.72 48.264 18.528 48.792 17.488C49.336 16.448 50.072 15.648 51 15.088C51.928 14.528 52.96 14.248 54.096 14.248C54.96 14.248 55.784 14.44 56.568 14.824C57.352 15.192 57.976 15.688 58.44 16.312V10H61.848V27.76H58.44V25.792C58.024 26.448 57.44 26.976 56.688 27.376C55.936 27.776 55.064 27.976 54.072 27.976C52.952 27.976 51.928 27.688 51 27.112C50.072 26.536 49.336 25.728 48.792 24.688C48.264 23.632 48 22.424 48 21.064ZM58.464 21.112C58.464 20.296 58.304 19.6 57.984 19.024C57.664 18.432 57.232 17.984 56.688 17.68C56.144 17.36 55.56 17.2 54.936 17.2C54.312 17.2 53.736 17.352 53.208 17.656C52.68 17.96 52.248 18.408 51.912 19C51.592 19.576 51.432 20.264 51.432 21.064C51.432 21.864 51.592 22.568 51.912 23.176C52.248 23.768 52.68 24.224 53.208 24.544C53.752 24.864 54.328 25.024 54.936 25.024C55.56 25.024 56.144 24.872 56.688 24.568C57.232 24.248 57.664 23.8 57.984 23.224C58.304 22.632 58.464 21.928 58.464 21.112Z" fill="white"/>
<path d="M69.0416 17.224V23.656C69.0416 24.104 69.1456 24.432 69.3536 24.64C69.5776 24.832 69.9456 24.928 70.4576 24.928H72.0176V27.76H69.9056C67.0736 27.76 65.6576 26.384 65.6576 23.632V17.224H64.0736V14.464H65.6576V11.176H69.0416V14.464H72.0176V17.224H69.0416Z" fill="white"/>
<path d="M96.6651 14.272C98.2971 14.272 99.6091 14.776 100.601 15.784C101.609 16.776 102.113 18.168 102.113 19.96V27.76H98.7531V20.416C98.7531 19.376 98.4891 18.584 97.9611 18.04C97.4331 17.48 96.7131 17.2 95.8011 17.2C94.8891 17.2 94.1611 17.48 93.6171 18.04C93.0891 18.584 92.8251 19.376 92.8251 20.416V27.76H89.4651V20.416C89.4651 19.376 89.2011 18.584 88.6731 18.04C88.1451 17.48 87.4251 17.2 86.5131 17.2C85.5851 17.2 84.8491 17.48 84.3051 18.04C83.7771 18.584 83.5131 19.376 83.5131 20.416V27.76H80.1531V14.464H83.5131V16.072C83.9451 15.512 84.4971 15.072 85.1691 14.752C85.8571 14.432 86.6091 14.272 87.4251 14.272C88.4651 14.272 89.3931 14.496 90.2091 14.944C91.0251 15.376 91.6571 16 92.1051 16.816C92.5371 16.048 93.1611 15.432 93.9771 14.968C94.8091 14.504 95.7051 14.272 96.6651 14.272Z" fill="white"/>
<path d="M111.206 27.976C109.926 27.976 108.773 27.696 107.75 27.136C106.726 26.56 105.917 25.752 105.326 24.712C104.75 23.672 104.461 22.472 104.461 21.112C104.461 19.752 104.757 18.552 105.349 17.512C105.958 16.472 106.781 15.672 107.821 15.112C108.861 14.536 110.021 14.248 111.301 14.248C112.581 14.248 113.742 14.536 114.782 15.112C115.822 15.672 116.637 16.472 117.229 17.512C117.838 18.552 118.142 19.752 118.142 21.112C118.142 22.472 117.829 23.672 117.205 24.712C116.597 25.752 115.766 26.56 114.71 27.136C113.67 27.696 112.502 27.976 111.206 27.976ZM111.206 25.048C111.813 25.048 112.382 24.904 112.91 24.616C113.453 24.312 113.885 23.864 114.205 23.272C114.525 22.68 114.686 21.96 114.686 21.112C114.686 19.848 114.349 18.88 113.677 18.208C113.021 17.52 112.214 17.176 111.254 17.176C110.294 17.176 109.485 17.52 108.829 18.208C108.189 18.88 107.869 19.848 107.869 21.112C107.869 22.376 108.181 23.352 108.806 24.04C109.445 24.712 110.246 25.048 111.206 25.048Z" fill="white"/>
<path d="M127.974 14.272C129.558 14.272 130.838 14.776 131.814 15.784C132.79 16.776 133.278 18.168 133.278 19.96V27.76H129.918V20.416C129.918 19.36 129.654 18.552 129.126 17.992C128.598 17.416 127.878 17.128 126.966 17.128C126.038 17.128 125.302 17.416 124.758 17.992C124.23 18.552 123.966 19.36 123.966 20.416V27.76H120.606V14.464H123.966V16.12C124.414 15.544 124.982 15.096 125.67 14.776C126.374 14.44 127.142 14.272 127.974 14.272Z" fill="white"/>
<path d="M148.833 20.824C148.833 21.304 148.801 21.736 148.737 22.12H139.017C139.097 23.08 139.433 23.832 140.025 24.376C140.617 24.92 141.345 25.192 142.209 25.192C143.457 25.192 144.345 24.656 144.873 23.584H148.497C148.113 24.864 147.377 25.92 146.289 26.752C145.201 27.568 143.865 27.976 142.281 27.976C141.001 27.976 139.849 27.696 138.825 27.136C137.817 26.56 137.025 25.752 136.449 24.712C135.889 23.672 135.609 22.472 135.609 21.112C135.609 19.736 135.889 18.528 136.449 17.488C137.009 16.448 137.793 15.648 138.801 15.088C139.809 14.528 140.969 14.248 142.281 14.248C143.545 14.248 144.673 14.52 145.665 15.064C146.673 15.608 147.449 16.384 147.993 17.392C148.553 18.384 148.833 19.528 148.833 20.824ZM145.353 19.864C145.337 19 145.025 18.312 144.417 17.8C143.809 17.272 143.065 17.008 142.185 17.008C141.353 17.008 140.649 17.264 140.073 17.776C139.513 18.272 139.169 18.968 139.041 19.864H145.353Z" fill="white"/>
<path d="M164.006 14.464L155.774 34.048H152.198L155.078 27.424L149.75 14.464H153.518L156.95 23.752L160.43 14.464H164.006Z" fill="white"/>
</svg>
